<svg width="24" height="24" viewBox="0 0 24 24" fill="none" xmlns="http://www.w3.org/2000/svg">
<path d="M21.5 6.5V14.5C21.5 15.2956 21.1839 16.0587 20.6213 16.6213C20.0587 17.1839 19.2956 17.5 18.5 17.5H13.5L8.46 21.28C8.06446 21.5767 7.5 21.2944 7.5 20.8V17.5H5.5C4.70435 17.5 3.94129 17.1839 3.37868 16.6213C2.81607 16.0587 2.5 15.2956 2.5 14.5V6.5C2.5 5.70435 2.81607 4.94129 3.37868 4.37868C3.94129 3.81607 4.70435 3.5 5.5 3.5H18.5C19.2956 3.5 20.0587 3.81607 20.6213 4.37868C21.1839 4.94129 21.5 5.70435 21.5 6.5Z" fill="#1A1A1A" stroke="#1A1A1A" stroke-width="1.8" stroke-linecap="round" stroke-linejoin="round"/>
</svg>
