<svg width="124" height="44" viewBox="0 0 124 44" fill="none" xmlns="http://www.w3.org/2000/svg">
<path d="M22.6607 20.3702C22.5753 19.4411 22.8354 18.4024 24.0209 18.2575C25.1488 18.0828 25.7564 18.9524 25.9013 19.8202C25.9589 20.1082 25.8437 20.2531 25.5297 20.3107C24.8348 20.4557 23.9094 20.6582 23.0992 20.8032C22.8354 20.8032 22.7239 20.688 22.6607 20.3702ZM26.3362 31.4801C31.2825 31.0174 33.9155 27.6895 33.8003 24.3615C33.7427 22.626 32.6427 22.1633 31.1673 23.2634C27.2039 26.2717 23.6734 25.2014 23.2107 24.1014C23.0082 23.609 23.2683 23.321 23.9057 23.2039L31.3383 21.8456C33.2782 21.4981 33.8264 20.7158 33.451 19.1252C32.6985 15.9664 29.5749 12.4136 23.7013 12.9339C17.0751 13.5118 15.3396 19.155 16.2074 23.9564C17.077 28.7022 21.4752 31.9428 26.3362 31.4801Z" fill="white"/>
<path d="M35.0742 15.1922V29.3996C35.0742 30.6149 35.7394 31.2801 36.9547 31.2801H41.1504C42.3656 31.2801 43.0308 30.6149 43.0308 29.3996V22.3387C43.0308 21.1234 43.2036 20.4805 44.2461 20.4805C45.2587 20.4805 45.4613 21.2609 45.4613 22.3387V29.3996C45.4613 30.6149 46.1265 31.2801 47.3417 31.2801H51.7121C52.9273 31.2801 53.5926 30.6149 53.5926 29.3996V19.0683C53.5926 14.3226 51.4817 12.877 48.8766 12.877C45.8106 12.877 44.7106 14.5827 44.3928 16.9853C44.3352 17.4759 44.1327 17.881 43.6682 17.8234C43.2352 17.7658 43.1776 17.3031 43.2055 16.9556L43.408 15.2498C43.553 13.9751 42.8301 13.3099 41.5852 13.3099H36.9547C35.732 13.3099 35.0742 13.9751 35.0742 15.1922Z" fill="white"/>
<path d="M68.4611 24.8543V21.6954C68.4611 20.9521 68.0561 20.5378 67.3054 20.5378H63.4032C62.7956 20.5378 62.188 20.3055 62.2159 19.3226C62.2456 18.4827 62.7362 18.1649 63.5166 18.3099L67.8777 19.1256C68.6005 19.2705 69.0353 18.7205 69.0353 17.968V15.6248C69.0353 14.6958 68.5726 14.2071 67.5878 13.6292C62.8142 10.8215 55.2051 11.1411 55.2051 18.6053V29.3975C55.2051 30.6127 55.8703 31.2779 57.0855 31.2779H61.1939C62.4091 31.2779 63.0743 30.6127 63.0743 29.3975V26.8797C63.0743 26.2999 63.2193 26.0119 64.0592 26.0119H67.2998C68.0635 26.0119 68.4611 25.6068 68.4611 24.8543Z" fill="white"/>
<path d="M77.4287 23.8118V20.3946C77.4287 19.6142 77.7483 19.1794 78.5287 19.1794C79.3091 19.1794 79.6287 19.6142 79.6287 20.3946V23.8081C79.6287 24.5903 79.2812 25.053 78.5287 25.053C77.7241 25.0567 77.4287 24.5941 77.4287 23.8118ZM70.2246 15.1621V32.2868C70.2246 33.502 70.8898 34.1673 72.1051 34.1673H75.8957C77.4008 34.1673 77.8913 33.5875 77.7761 32.1121L77.4584 28.0131C77.4287 27.608 77.516 27.0004 78.0363 27.0004C78.4711 27.0004 78.7015 27.2902 78.761 28.0131C78.9338 30.2986 80.2066 31.1719 82.0294 31.1719C84.8947 31.1719 87.6132 29.2339 87.6132 22.4052V21.1918C87.6132 14.653 85.3834 12.9453 82.7523 12.9453C79.9762 12.9453 79.3686 14.4783 78.7312 16.4461C78.616 16.8177 78.4711 17.2562 78.0363 17.2265C77.6312 17.1986 77.6312 16.6783 77.6646 16.4163L77.7798 15.2606C77.8951 13.9859 77.2224 13.2928 75.9867 13.2928H72.1051C70.8898 13.2816 70.2246 13.9469 70.2246 15.1621V15.1621Z" fill="white"/>
<path d="M99.0714 14.9874L98.722 16.5223C97.9416 20.023 97.5644 20.6009 97.0739 20.6009C96.5517 20.6009 96.4941 19.8205 96.4941 18.6331V15.1026C96.4941 13.8874 95.8289 13.2222 94.6137 13.2222H89.6691C88.4539 13.2222 87.8742 13.9153 88.1064 15.1026C89.9293 24.3339 91.78 25.9821 93.8909 26.1549C95.3662 26.2701 96.9289 25.2872 97.2764 23.377C97.3619 22.8195 97.5942 22.5947 97.9695 22.5947C98.4043 22.5947 98.4619 22.8567 98.5269 23.338C98.8744 27.0989 95.7787 30.0083 91.3805 27C88.7196 25.1772 87.1569 28.5761 88.3145 30.7743C89.4424 32.9149 92.1906 34.5073 95.9813 34.1877C103.157 33.5801 105.934 25.9431 107.959 15.1788C108.191 13.906 107.401 13.2129 106.166 13.2129H101.039C99.8815 13.224 99.3315 13.8019 99.0714 14.9874Z" fill="white"/>
</svg>
