<svg width="24" height="24" viewBox="0 0 24 24" fill="none" xmlns="http://www.w3.org/2000/svg">
<path d="M12.2994 3.10727L11.6626 3.87833L11.6655 3.88067L12.2994 3.10727ZM20.8257 10.0958L20.1918 10.8692L20.1946 10.8715L20.8257 10.0958ZM3.17432 10.0958L3.80542 10.8715L3.80823 10.8692L3.17432 10.0958ZM11.7006 3.10727L12.3345 3.88068L12.3374 3.87833L11.7006 3.10727ZM11.6655 3.88067L20.1918 10.8692L21.4596 9.32237L12.9333 2.33386L11.6655 3.88067ZM20.1946 10.8715C20.0701 10.7702 20 10.6192 20 10.4631H22C22 10.0223 21.8029 9.6017 21.4568 9.32007L20.1946 10.8715ZM20 10.4631V20.7114H22V10.4631H20ZM20 20.7114C20 20.3177 20.3179 19.9962 20.7158 19.9962V21.9962C21.4263 21.9962 22 21.4184 22 20.7114H20ZM20.7158 19.9962H14.3719V21.9962H20.7158V19.9962ZM14.3719 19.9962C14.7774 19.9962 15.0891 20.3264 15.0891 20.7114H13.0891C13.0891 21.4097 13.6518 21.9962 14.3719 21.9962V19.9962ZM15.0891 20.7114V17.2256H13.0891V20.7114H15.0891ZM15.0891 17.2256C15.0891 16.3387 14.9727 15.3703 14.5187 14.5944C14.0127 13.7294 13.1537 13.2176 12 13.2176V15.2176C12.4758 15.2176 12.6613 15.3801 12.7925 15.6043C12.9757 15.9175 13.0891 16.4531 13.0891 17.2256H15.0891ZM12 13.2176C10.8462 13.2176 9.98799 13.73 9.48326 14.5957C9.03089 15.3715 8.91568 16.3397 8.91568 17.2256H10.9157C10.9157 16.4521 11.0284 15.9163 11.211 15.6031C11.3413 15.3796 11.5252 15.2176 12 15.2176V13.2176ZM8.91568 17.2256V20.7114H10.9157V17.2256H8.91568ZM8.91568 20.7114C8.91568 20.2878 9.25769 19.9962 9.62432 19.9962V21.9962C10.3055 21.9962 10.9157 21.4483 10.9157 20.7114H8.91568ZM9.62432 19.9962H3.28421V21.9962H9.62432V19.9962ZM3.28421 19.9962C3.6833 19.9962 4 20.3198 4 20.7114H2C2 21.4163 2.57059 21.9962 3.28421 21.9962V19.9962ZM4 20.7114V10.4631H2V20.7114H4ZM4 10.4631C4 10.6192 3.92988 10.7702 3.80542 10.8715L2.54321 9.32007C2.19706 9.6017 2 10.0223 2 10.4631H4ZM3.80823 10.8692L12.3345 3.88067L11.0667 2.33386L2.5404 9.32237L3.80823 10.8692ZM12.3374 3.87833C12.2378 3.96056 12.1176 4 12 4V2C11.6702 2 11.3359 2.11158 11.0639 2.33621L12.3374 3.87833ZM12 4C11.8824 4 11.7622 3.96056 11.6626 3.87833L12.9361 2.33621C12.6641 2.11158 12.3298 2 12 2V4Z" fill="#1A1A1A"/>
</svg>
