<svg width="24" height="24" viewBox="0 0 24 24" fill="none" xmlns="http://www.w3.org/2000/svg">
<path fill-rule="evenodd" clip-rule="evenodd" d="M11.0952 2.3235L2.52381 9.34898C2.19143 9.62191 2 10.0256 2 10.4569V20.7594C2 21.4436 2.55524 22 3.2381 22H8.75333C9.43619 22 9.99143 21.4436 9.99143 20.7594V16.0042C9.99143 14.8629 10.8924 13.9343 12 13.9343C13.1076 13.9343 14.0076 14.8629 14.0076 16.0042V20.7594C14.0076 21.4436 14.5629 22 15.2467 22H20.7619C21.4448 22 22 21.4436 22 20.7594V10.4569C22 10.0256 21.8095 9.62191 21.4762 9.34898L12.9048 2.3235C12.6505 2.11547 12.3286 2 12 2C11.6714 2 11.3495 2.11547 11.0952 2.3235Z" fill="#1A1A1A"/>
</svg>
