<svg width="24" height="24" viewBox="0 0 24 24" fill="none" xmlns="http://www.w3.org/2000/svg">
<path d="M7.52998 12.88C9.62866 12.88 11.33 11.1787 11.33 9.08C11.33 6.98132 9.62866 5.28 7.52998 5.28C5.4313 5.28 3.72998 6.98132 3.72998 9.08C3.72998 11.1787 5.4313 12.88 7.52998 12.88Z" fill="#1A1A1A"/>
<path d="M16.4699 10.1C18.5686 10.1 20.2699 8.39868 20.2699 6.3C20.2699 4.20132 18.5686 2.5 16.4699 2.5C14.3712 2.5 12.6699 4.20132 12.6699 6.3C12.6699 8.39868 14.3712 10.1 16.4699 10.1Z" fill="#1A1A1A"/>
<path d="M23.7801 15.73C23.2801 14.39 22.2701 13.2 20.9401 12.39C19.6201 11.58 18.0901 11.16 16.4901 11.2C14.8801 11.17 13.3201 11.58 12.0001 12.39C11.8643 12.4692 11.7382 12.558 11.6144 12.6509C11.4891 12.745 11.5193 12.9416 11.6642 13.0012C12.1053 13.1826 12.5323 13.3921 12.9401 13.64C14.6101 14.66 15.8801 16.17 16.5401 17.94C16.6204 18.1648 16.6684 18.4025 16.7049 18.6375C16.7203 18.7362 16.8045 18.81 16.9044 18.81H21.3001C21.6801 18.81 22.0701 18.73 22.4101 18.58C22.7701 18.43 23.0801 18.2 23.3301 17.92C23.5901 17.62 23.7701 17.27 23.8501 16.91C23.9301 16.53 23.9101 16.13 23.7701 15.74L23.7801 15.73Z" fill="#1A1A1A"/>
<path d="M14.8399 18.52C14.3399 17.18 13.3299 15.99 11.9999 15.18C10.6799 14.37 9.15992 13.96 7.54992 13.99C5.92992 13.96 4.37992 14.37 3.05992 15.18C1.72992 15.99 0.729918 17.18 0.219918 18.54C0.0899175 18.91 0.0699175 19.31 0.149918 19.69C0.229918 20.06 0.409918 20.41 0.669918 20.71C0.919918 20.99 1.23992 21.22 1.59992 21.37C1.93992 21.51 2.32992 21.59 2.69992 21.59H12.3599C12.7399 21.59 13.1299 21.51 13.4699 21.36C13.8299 21.21 14.1399 20.98 14.3899 20.7C14.6499 20.4 14.8299 20.05 14.9099 19.69C14.9899 19.31 14.9699 18.91 14.8299 18.52H14.8399Z" fill="#1A1A1A"/>
</svg>
