<svg width="24" height="25" viewBox="0 0 24 25" fill="none" xmlns="http://www.w3.org/2000/svg">
<path d="M23.7801 16.5365C23.2801 15.1965 22.2701 14.0065 20.9401 13.1965C19.6201 12.3865 18.0901 11.9665 16.4901 12.0065C14.8801 11.9765 13.3201 12.3865 12.0001 13.1965C11.8643 13.2757 11.7382 13.3645 11.6144 13.4574C11.4891 13.5515 11.5189 13.7491 11.6628 13.8112C11.87 13.9008 12.0743 13.9986 12.2701 14.0965C12.4901 14.2065 12.7201 14.3065 12.9301 14.4365C12.9777 14.4663 13.0253 14.4995 13.0729 14.5322C13.1323 14.5729 13.2091 14.5751 13.2731 14.5419C14.19 14.0659 15.2518 13.7965 16.3601 13.7965C16.4001 13.7965 16.4401 13.7965 16.4801 13.7965C17.7101 13.7965 18.9801 14.1065 20.0001 14.7265C20.9901 15.3265 21.7301 16.1965 22.0801 17.1365C22.1001 17.1965 22.1101 17.2565 22.0901 17.3265C22.0801 17.3965 22.0401 17.4665 21.9801 17.5265C21.9101 17.6065 21.8101 17.6765 21.7001 17.7165C21.5701 17.7665 21.4301 17.7965 21.2901 17.7965H16.4387C16.2888 17.7965 16.1919 17.9554 16.2567 18.0906C16.3514 18.2881 16.4402 18.4901 16.5201 18.6965C16.5201 18.7065 16.5201 18.7165 16.5301 18.7265C16.6104 18.9513 16.6584 19.189 16.6949 19.424C16.7103 19.5228 16.7945 19.5965 16.8944 19.5965H21.2901C21.6701 19.5965 22.0601 19.5165 22.4001 19.3665C22.7601 19.2165 23.0701 18.9865 23.3201 18.7065C23.5801 18.4065 23.7601 18.0565 23.8401 17.6965C23.9201 17.3165 23.9001 16.9165 23.7601 16.5265L23.7801 16.5365Z" fill="#1A1A1A"/>
<path d="M16.4698 10.007C18.0698 10.007 19.3698 8.70703 19.3698 7.10703C19.3698 5.50703 18.0698 4.20703 16.4698 4.20703C14.8698 4.20703 13.5698 5.50703 13.5698 7.10703C13.5698 8.70703 14.8698 10.007 16.4698 10.007Z" stroke="#1A1A1A" stroke-width="1.8" stroke-linecap="round" stroke-linejoin="round"/>
<path d="M7.52988 12.7961C9.12988 12.7961 10.4299 11.4961 10.4299 9.89609C10.4299 8.29609 9.12988 6.99609 7.52988 6.99609C5.92988 6.99609 4.62988 8.29609 4.62988 9.89609C4.62988 11.4961 5.92988 12.7961 7.52988 12.7961V12.7961Z" stroke="#1A1A1A" stroke-width="1.8" stroke-linecap="round" stroke-linejoin="round"/>
<path d="M12.3602 21.4963C12.6202 21.4963 12.8902 21.4463 13.1202 21.3463C13.3602 21.2463 13.5602 21.0963 13.7202 20.9163C13.8802 20.7363 13.9902 20.5263 14.0302 20.3063C14.0802 20.0863 14.0602 19.8563 13.9902 19.6363C13.5602 18.4763 12.6902 17.4563 11.5302 16.7463C10.3702 16.0363 8.96022 15.6663 7.53022 15.6863C6.10022 15.6663 4.69022 16.0363 3.53022 16.7463C2.37022 17.4563 1.50022 18.4663 1.07022 19.6363C1.00022 19.8563 0.980216 20.0863 1.03022 20.3063C1.08022 20.5263 1.19022 20.7363 1.35022 20.9163C1.51022 21.0963 1.72022 21.2463 1.95022 21.3463C2.19022 21.4463 2.45022 21.4963 2.71022 21.4963H12.3602Z" stroke="#1A1A1A" stroke-width="1.8" stroke-linecap="round" stroke-linejoin="round"/>
</svg>
